PathFileType	4	(X/Y/Z)	C:/Users/beibeiliu/ov580/test_trc/capture2\sequence.16_training_dense_left.trc
DataRate	CameraRate	NumFrames	NumMarkers	Units	OrigDataRate	OrigDataStartFrame	OrigNumFrames
120	120	14	19	mm	120	351	400
Frame#	Time	ThumbCMC			ThumbMCP			ThumbIP			ThumbTip			IndexMCP			IndexPIP			IndexTip			MiddleMCP			MiddlePIP			MiddleTip			RingMCP			RingPIP			RingTip			PinkyMCP			PinkyPIP			PinkyTip			BackHand1			BackHand2			BackHand3	
		X0	Y0	Z0	X1	Y1	Z1	X2	Y2	Z2	X3	Y3	Z3	X4	Y4	Z4	X5	Y5	Z5	X6	Y6	Z6	X7	Y7	Z7	X8	Y8	Z8	X9	Y9	Z9	X10	Y10	Z10	X11	Y11	Z11	X12	Y12	Z12	X13	Y13	Z13	X14	Y14	Z14	X15	Y15	Z15	X16	Y16	Z16	X17	Y17	Z17	X18	Y18	Z18	
350	2.91667	-178.366	105.825	-52.7623	-170.219	123.667	-71.1727	-166.241	136.695	-91.6418	-163.09	149.222	-108.454	-136.811	89.4488	-122.071	-119.584	88.1363	-135.939	-97.9177	87.189	-155.378	-112.279	78.8858	-106.916	-89.628	91.9403	-89.5373	-101.466	102.52	-55.7366	-111.789	67.5195	-92.0898	-94.9011	85.2191	-67.0858	-116.906	93.587	-45.0229	-108.382	50.3479	-79.2953	-100.058	72.8098	-57.4913	-123.634	82.8806	-37.5867	-157.908	47.3178	-77.9945	-179.798	49.551	-53.9734	-181.604	73.0255	-68.7373	
351	2.925	-182.499	100.917	-53.7797	-176.678	119.337	-72.0562	-174.712	132.298	-94.8062	-174.178	141.595	-110	-147.493	86.4533	-123.517	-132.38	85.6305	-139	-110.474	83.9255	-161.923	-121.818	73.54	-110.331	-98.594	92.5853	-100.32	-104.641	96.8346	-63.4128	-111.22	63.1513	-95.3025	-98.2471	81.3232	-72.6306	-116.42	86.6192	-48.1567	-113.7	50.1324	-84.1432	-102.2	69.6974	-66.8378	-121.511	77.5379	-41.5479	-164.97	43.2768	-74.6451	-177.035	41.2082	-50.484	-185.182	69.8909	-69.0103	
352	2.93333	-186.071	92.6654	-52.922	-184.194	109.961	-70.3322	-186.626	122.114	-98.0742	-188.041	132.483	-111.219	-162.572	78.2067	-125.221	-148.031	80.4689	-149.759	-129.171	74.6318	-167.311	-136.086	70.1073	-115.866	-109.188	87.489	-107.625	-118.13	99.1215	-68.962	-118.971	60.5031	-101.73	-106.763	80.2303	-85.1886	-123.809	87.4206	-56.2737	-114.119	48.2982	-90.7222	-107.669	69.1003	-73.0653	-123.406	77.305	-47.4801	-166.866	33.4164	-77.9179	-177.525	33.209	-45.0679	-189.097	58.4721	-65.0317	
353	2.94167	-188.912	87.2807	-54.3975	-189.258	104.991	-70.927	-196.044	116.168	-96.5788	-200.7	127.025	-109.676	-170.185	69.2312	-127.697	-159.374	72.0696	-151.011	-148.107	72.931	-171.756	-142.348	71.3658	-121.401	-119.902	90.5127	-108.859	-124.098	94.4614	-73.1617	-129.62	57.1748	-106.242	-114.099	81.7279	-90.6416	-126.605	87.2799	-62.673	-119.975	46.7457	-95.9555	-113.588	70.2261	-80.2059	-124.696	75.091	-52.5619	-169.357	32.3224	-77.2157	-179.584	33.0564	-45.3885	-193.05	55.8426	-66.682	
354	2.95	-193.164	88.765	-51.0352	-194.812	104.67	-72.1032	-202.327	114.472	-94.1962	-208.453	124.548	-111.34	-179.229	68.9446	-126.2	-169.08	69.8731	-150.175	-160.781	69.8799	-171.251	-149.537	64.559	-119.951	-125.02	88.1443	-112.081	-127.987	92.068	-77.3268	-136.029	57.8453	-109.327	-119.647	80.6862	-94.527	-130.797	83.4259	-63.3644	-129.867	45.2068	-98.2182	-114.668	68.7193	-81.7551	-129.193	76.5867	-57.6992	-174.308	29.8473	-74.5239	-179.869	27.8867	-41.5789	-193.383	54.121	-60.5746	
355	2.95833	-192.568	87.5458	-48.8342	-195.629	104.483	-69.757	-205.064	114.196	-94.0416	-212.329	125.192	-104.834	-182.974	66.4727	-125.384	-175.504	66.7041	-150.833	-170.881	67.3125	-170.762	-151.275	64.7673	-122.731	-129.983	86.0484	-115.351	-130.078	89.319	-79.6856	-139.957	53.9075	-110.593	-122.314	78.1781	-96.674	-132.331	82.9783	-68.1748	-129.165	45.2299	-101.04	-120.59	67.6903	-85.5592	-130.192	72.0823	-56.2328	-172.965	25.9576	-72.8431	-181.13	29.7434	-43.478	-196.878	54.2747	-63.1087	
356	2.96667	-192.852	88.3071	-48.1172	-194.028	103.145	-69.6126	-202.571	114.318	-88.0039	-215.448	128.575	-105.253	-189.427	68.0791	-125.215	-185.186	68.3037	-145.775	-177.712	63.1475	-172.885	-159.553	63.3744	-122.438	-132.839	82.148	-116.178	-133.462	87.1612	-78.7496	-146.778	55.9088	-113.093	-125.753	76.0691	-99.3617	-133.171	77.672	-66.9195	-137.695	44.8984	-103.669	-123.809	66.0686	-89.1567	-134.418	71.6613	-60.4122	-176.418	27.7437	-73.0374	-181.983	31.9049	-39.7034	-199.876	55.8199	-59.8715	
357	2.975	-189.79	91.5424	-44.7542	-192.336	107.483	-64.0042	-204.174	119.316	-88.1038	-210.405	129.212	-102.142	-194.686	69.5886	-120.707	-192.531	71.1312	-144.351	-188.155	65.1434	-167.669	-167.532	66.3838	-121.045	-138.689	80.1663	-120.653	-134.841	87.4781	-81.4021	-152.079	54.5141	-114.294	-127.407	70.9787	-103.208	-134.666	79.3659	-70.7755	-143.784	43.0126	-104.587	-126.112	60.2652	-94.6005	-135.69	67.0457	-61.4906	-182.729	29.516	-69.5836	-183.011	30.8132	-39.4042	-198.807	56.807	-54.8993	
358	2.98333	-186.912	95.9776	-42.1533	-186.254	111.121	-63.1361	-196.735	122.917	-83.7395	-205.378	135.318	-100.01	-200.167	77.1094	-116.61	-197.266	73.7489	-140.58	-195.599	71.4197	-168.547	-169.084	67.3171	-124.778	-139.869	80.3921	-122.117	-132.412	83.7505	-86.8144	-152.507	52.7998	-116.481	-129.451	65.5276	-106.122	-131.821	73.179	-71.1916	-146.757	38.8707	-107.116	-126.14	56.4148	-93.6476	-133.604	67.8227	-67.4208	-189.082	34.5387	-72.7624	-186.789	31.8198	-39.9585	-199.903	65.2232	-52.7451	
359	2.99167	-183.227	97.8203	-44.5463	-181.676	113.807	-61.0394	-191.059	130.137	-80.355	-197.713	143.092	-95.2682	-202.082	85.4333	-116.398	-201.505	84.5003	-141.594	-201.717	78.243	-165.496	-175.675	71.9934	-122.392	-145.686	79.0319	-126.003	-132.595	81.2947	-86.8529	-161.414	52.9912	-114.772	-130.951	65.6725	-106.12	-130.973	71.621	-74.2512	-158.328	40.1554	-104.961	-131.466	53.0988	-99.9138	-132.888	63.8261	-66.6794	-193.029	36.9442	-70.6813	-188.026	35.2515	-36.6371	-200.634	71.7616	-54.5516	
360	3	-178.462	102.546	-41.628	-175.055	113.837	-59.2442	-185.078	129.966	-82.9374	-192.281	146.92	-94.5127	-201.545	86.9267	-113.946	-203.528	89.3497	-140.52	-203.761	82.8591	-164.314	-176.907	76.6336	-122.404	-143.811	79.1601	-125.507	-133.891	84.5416	-88.5491	-165.977	54.0424	-115.445	-134.432	63.7586	-109.755	-133.361	71.1136	-74.6922	-160.396	44.8045	-108.562	-134.11	51.5871	-102.324	-131.53	64.1052	-73.0853	-196.676	43.2884	-72.1679	-191.521	39.8906	-40.6786	-199.702	73.9298	-50.7339	
361	3.00833	-172.84	100.22	-40.0467	-171.278	118.406	-61.1792	-179.707	135.93	-79.8359	-184.213	152.17	-92.6404	-200.589	93.8371	-112.099	-203.301	95.4058	-134.136	-206.606	93.0925	-161.416	-180.141	80.7912	-118.914	-147.995	82.903	-127.316	-132.583	82.5481	-92.791	-169.029	59.1709	-114.954	-135.371	65.258	-108.901	-133.078	71.323	-76.5788	-165.221	43.7968	-108.595	-136.836	53.3494	-101.065	-130.335	63.9242	-69.9143	-198.401	52.4285	-65.8084	-193.392	48.8867	-34.9069	-197.363	77.14	-48.7717	
362	3.01667	-166.143	103.051	-36.9758	-164.038	124.719	-58.6893	-168.41	142.125	-74.7917	-173.448	158.41	-92.229	-196.508	105.243	-107.694	-200.079	105.239	-133.126	-204.736	106.037	-159.909	-179.094	82.9894	-118.476	-145.528	85.9916	-125.569	-132.755	82.8782	-91.7067	-171.457	66.6029	-115.829	-141.55	69.2219	-112.968	-135.359	72.9507	-76.7085	-169.324	51.7347	-108.18	-139.634	53.9262	-101.514	-132.888	61.9581	-73.5991	-202.066	60.8096	-64.825	-196.919	54.3712	-38.9143	-196.332	84.546	-48.0534	
363	3.025	-160.192	107.327	-35.6661	-154.769	123.37	-58.0902	-155.153	143.161	-70.7974	-158.71	160.416	-88.402	-190.192	117.852	-104.462	-194.641	119.475	-130.31	-198.832	121.412	-159.07	-175.998	93.9714	-118.518	-145.673	88.676	-126.376	-132.647	80.0532	-91.2348	-173.061	75.6382	-115.084	-141.406	70.4402	-113.609	-134.182	69.0208	-81.3876	-172.292	59.3083	-109.942	-143.712	54.149	-104.257	-132.867	59.1966	-74.6233	-201.891	70.7429	-65.4298	-195.706	64.2408	-35.4134	-191.663	97.8678	-45.5259	
